HIERARCHY
ROOT Hips
{
	OFFSET 0.000000 0.000000 0.000000
	CHANNELS 6 Xposition Yposition Zposition Xrotation Yrotation Zrotation
	JOINT Chest
	{
		OFFSET 0.000000 0.009282 11.569106
		CHANNELS 3 Xrotation Yrotation Zrotation
		JOINT Chest2
		{
			OFFSET 0.000000 -0.016863 9.269641
			CHANNELS 3 Xrotation Yrotation Zrotation
			JOINT Chest3
			{
				OFFSET 0.000000 0.000000 8.374491
				CHANNELS 3 Xrotation Yrotation Zrotation
				JOINT Chest4
				{
					OFFSET 0.000000 0.000000 8.374493
					CHANNELS 3 Xrotation Yrotation Zrotation
					JOINT Neck
					{
						OFFSET 0.000000 -0.000001 12.152554
						CHANNELS 3 Xrotation Yrotation Zrotation
						JOINT Head
						{
							OFFSET 0.000000 -0.040100 7.802319
							CHANNELS 3 Xrotation Yrotation Zrotation
							End Site
							{
								OFFSET 0.000000 -0.020946 14.853096
							}
						}
					}
					JOINT RightCollar
					{
						OFFSET -2.894404 0.000000 6.791374
						CHANNELS 3 Xrotation Yrotation Zrotation
						JOINT RightShoulder
						{
							OFFSET -13.574684 0.000000 0.000000
							CHANNELS 3 Xrotation Yrotation Zrotation
							JOINT RightElbow
							{
								OFFSET -23.923903 0.000000 0.000000
								CHANNELS 3 Xrotation Yrotation Zrotation
								JOINT RightWrist
								{
									OFFSET -19.846718 -0.012765 0.000000
									CHANNELS 3 Xrotation Yrotation Zrotation
									End Site
									{
										OFFSET -14.973145 0.000000 0.000000
									}
								}
							}
						}
					}
					JOINT LeftCollar
					{
						OFFSET 2.894404 0.000000 6.791374
						CHANNELS 3 Xrotation Yrotation Zrotation
						JOINT LeftShoulder
						{
							OFFSET 13.574684 0.000000 0.000000
							CHANNELS 3 Xrotation Yrotation Zrotation
							JOINT LeftElbow
							{
								OFFSET 23.923903 0.000000 0.000000
								CHANNELS 3 Xrotation Yrotation Zrotation
								JOINT LeftWrist
								{
									OFFSET 19.846718 -0.012765 0.000000
									CHANNELS 3 Xrotation Yrotation Zrotation
									End Site
									{
										OFFSET 14.973145 0.000000 0.000000
									}
								}
							}
						}
					}
				}
			}
		}
	}
	JOINT RightHip
	{
		OFFSET -9.469263 -0.004642 0.045487
		CHANNELS 3 Xrotation Yrotation Zrotation
		JOINT RightKnee
		{
			OFFSET 0.000000 -0.002666 -40.478676
			CHANNELS 3 Xrotation Yrotation Zrotation
			JOINT RightAnkle
			{
				OFFSET 0.000000 -0.049110 -35.224068
				CHANNELS 3 Xrotation Yrotation Zrotation
				JOINT RightToe
				{
					OFFSET 0.000000 -12.539530 -6.151390
					CHANNELS 3 Xrotation Yrotation Zrotation
					End Site
					{
						OFFSET 0.000000 -5.044995 -1.291870
					}
				}
			}
		}
	}
	JOINT LeftHip
	{
		OFFSET 9.469263 -0.004642 0.045487
		CHANNELS 3 Xrotation Yrotation Zrotation
		JOINT LeftKnee
		{
			OFFSET 0.000000 -0.002666 -40.478676
			CHANNELS 3 Xrotation Yrotation Zrotation
			JOINT LeftAnkle
			{
				OFFSET 0.000000 -0.049110 -35.224068
				CHANNELS 3 Xrotation Yrotation Zrotation
				JOINT LeftToe
				{
					OFFSET 0.000000 -12.539530 -6.151390
					CHANNELS 3 Xrotation Yrotation Zrotation
					End Site
					{
						OFFSET 0.000000 -5.044995 -1.291870
					}
				}
			}
		}
	}
}
MOTION
Frames: 11
Frame Time: 0.016667
-75.220139 22.182175 82.210945 1.486419 1.843156 -339.646347 0.659681 2.012707 2.700034 0.498191 0.946653 1.023770 0.498193 0.946651 1.023769 0.375221 0.709158 0.768582 21.203171 -2.792849 -1.998003 3.116606 -4.530506 -4.470953 -5.207913 -8.907784 -2.292220 17.727575 -41.932895 -7.200694 70.181532 14.101744 65.058932 -52.698010 42.905408 79.565563 -4.626403 9.144827 -2.236874 14.598518 40.225098 16.689185 61.762313 -11.761584 -63.532999 -16.687026 -26.123587 -75.846204 -2.513596 -2.708024 -11.552669 28.606473 -6.397282 6.833647 -2.386055 4.756615 11.310006 -22.557866 10.762846 1.862714 -15.948280 -3.314139 21.192434 8.893465 5.941346 16.184844 3.210851 8.445169 12.562627 -1.588593 -4.526970 -0.060210 
-75.214706 22.428896 82.342239 1.570899 1.658902 -343.374647 0.612222 2.028380 2.710264 0.491550 0.959781 1.012267 0.491551 0.959779 1.012276 0.370245 0.719022 0.759955 21.206969 -2.686869 -1.823155 3.130422 -4.387543 -4.119586 -5.249103 -8.876737 -2.281130 17.664508 -41.961499 -7.229952 70.237499 14.016301 65.077783 -52.552346 42.915820 79.448610 -4.699685 9.201347 -2.277201 14.714768 40.134041 16.633283 61.786137 -11.800945 -63.526702 -16.815000 -26.078345 -75.964497 -2.261085 -2.498897 -10.987858 27.982527 -6.296231 6.445871 -2.649075 4.827807 11.266317 -22.218862 10.108850 1.758474 -15.660539 -3.454979 20.849391 8.663330 5.505704 15.146141 3.658442 9.987123 11.365241 -1.610369 -4.089397 -0.098177 
-75.178757 22.689014 82.463783 1.622363 1.401925 -347.033114 0.624545 2.095993 2.649693 0.480225 0.970632 1.000972 0.480225 0.970631 1.000970 0.361751 0.727188 0.751476 21.212460 -2.564561 -1.659132 3.147701 -4.211580 -3.783220 -5.344870 -8.863443 -2.255277 17.604439 -41.974624 -7.303722 70.293875 13.954514 65.095733 -52.408274 42.915858 79.341417 -4.807278 9.240508 -2.287999 14.858274 40.052909 16.567954 61.819789 -11.791538 -63.524188 -16.933596 -26.048864 -76.055181 -2.015603 -2.170385 -10.698377 27.442488 -6.131687 5.744861 -3.019843 4.662767 11.751624 -21.765566 9.629894 1.649085 -15.297740 -3.454086 20.372246 8.368814 5.069348 14.208778 3.967075 11.081510 10.340398 -1.561178 -3.417800 -0.113017 
-75.078911 22.955751 82.571602 1.611867 1.082179 -350.635875 0.700878 2.207487 2.535193 0.468690 0.973939 0.991992 0.468691 0.973939 0.991997 0.353092 0.729697 0.744730 21.220337 -2.422736 -1.509440 3.169630 -3.995756 -3.467343 -5.442779 -8.847486 -2.249424 17.590976 -41.966639 -7.333536 70.317610 13.906675 65.130054 -52.280221 42.910609 79.245207 -4.909511 9.273038 -2.305090 14.969637 39.991816 16.539117 61.819291 -11.726810 -63.539658 -16.946826 -26.022471 -76.056322 -1.746554 -1.725389 -10.721944 26.935058 -5.762743 5.185214 -3.489456 3.962346 12.350678 -21.115501 9.479488 1.551960 -14.845614 -3.327036 19.765700 7.996723 4.620247 13.251268 4.138056 11.750388 9.600238 -1.475201 -2.570318 -0.116290 
-74.885117 23.245674 82.653381 1.595471 0.724194 -354.264700 0.769470 2.351927 2.461350 0.468908 0.966482 0.982476 0.468907 0.966482 0.982481 0.353226 0.724110 0.737585 21.196831 -2.259709 -1.368077 3.133432 -3.737999 -3.161549 -5.613490 -8.845530 -2.255191 17.622477 -41.907104 -7.384526 70.325267 13.877613 65.198739 -52.196995 42.916944 79.190450 -5.066639 9.325357 -2.321311 15.030653 39.941812 16.577241 61.817665 -11.680808 -63.551229 -16.880360 -26.026390 -76.000690 -1.541914 -1.141709 -10.866041 26.446402 -5.090147 4.836439 -4.066237 2.399859 13.363423 -20.119219 9.956645 1.478836 -14.353964 -3.093394 19.126937 7.537018 4.149372 12.151285 4.195252 12.072280 9.109262 -1.393300 -1.644396 -0.106996 
-74.609726 23.570375 82.707619 1.576099 0.427089 -357.929971 0.805732 2.443346 2.458530 0.481447 0.946786 0.977965 0.481447 0.946786 0.977967 0.362593 0.709322 0.734205 21.154479 -2.094959 -1.246845 3.061490 -3.470941 -2.892589 -5.778556 -8.856495 -2.263089 17.581597 -41.831593 -7.507765 70.353926 13.832664 65.287046 -52.168121 42.918231 79.180389 -5.138285 9.357568 -2.335339 14.959462 39.916069 16.627734 61.833183 -11.715007 -63.550614 -16.763458 -26.051052 -75.910477 -1.422434 -0.473656 -10.959286 25.964669 -4.407036 4.956958 -4.567079 0.436651 14.398312 -18.942358 10.840171 1.444618 -13.855485 -2.863850 18.470221 7.052990 3.672458 10.901089 4.054783 12.097447 8.968762 -1.296039 -0.712390 -0.088656 
-74.358513 23.806797 82.752983 1.395458 0.411513 -361.442300 1.001766 2.278206 2.330516 0.507092 0.909278 0.986701 0.507093 0.909279 0.986702 0.381779 0.681141 0.740765 21.084647 -1.935257 -1.136860 2.937694 -3.209489 -2.646283 -5.890400 -8.874199 -2.250667 17.458961 -41.772740 -7.685672 70.374144 13.790578 65.371201 -52.266373 42.902211 79.264338 -5.175194 9.361149 -2.333783 14.872549 39.940313 16.580146 61.852356 -11.752399 -63.517023 -16.574721 -26.123734 -75.759611 -1.267119 -0.017954 -11.129013 25.528426 -3.961225 6.282869 -5.091640 -0.963657 14.329481 -17.674885 11.459070 1.585942 -13.228196 -2.877900 17.497341 6.636520 3.220894 9.729140 3.620528 11.893974 9.060328 -1.066283 0.169236 -0.088644 
-74.229897 23.999807 82.787582 1.229436 0.476433 -364.926298 1.206120 2.059581 2.217322 0.543496 0.859168 0.991537 0.543497 0.859168 0.991537 0.409010 0.643497 0.744404 21.000738 -1.783412 -1.041269 2.786933 -2.958182 -2.428727 -6.005936 -8.894477 -2.200620 17.410816 -41.735355 -7.843045 70.327671 13.790243 65.411444 -52.524213 42.888271 79.472516 -5.195042 9.364320 -2.307773 14.843027 39.999753 16.447329 61.842780 -11.788901 -63.478200 -16.322439 -26.208703 -75.529509 -1.198381 0.257208 -11.227806 25.205763 -3.629606 8.014326 -5.578525 -1.959867 13.661880 -16.563209 11.938813 1.732934 -12.599379 -2.992241 16.436242 6.245776 2.816636 8.796603 3.102071 11.509277 9.166772 -0.813041 0.970329 -0.093938 
-74.144020 24.181774 82.814880 1.137596 0.541692 -368.411716 1.352928 1.870890 2.166907 0.591570 0.810349 0.989124 0.591572 0.810349 0.989125 0.444985 0.606808 0.742618 20.907844 -1.670912 -0.953799 2.618059 -2.776566 -2.237562 -6.105977 -8.891369 -2.206950 17.425218 -41.720080 -7.903813 70.220383 13.802643 65.433431 -52.745477 42.872380 79.649903 -5.157368 9.340145 -2.314247 14.862852 40.086022 16.246438 61.762696 -11.816188 -63.462491 -16.070720 -26.300205 -75.275884 -1.271129 0.480157 -10.997411 24.931478 -3.575808 8.614522 -5.836677 -2.738672 13.624386 -15.617103 12.324606 1.765650 -12.031429 -3.169117 15.375772 5.880935 2.477159 8.056137 2.527221 10.986925 9.356890 -0.566769 1.668927 -0.048014 
-74.060524 24.349073 82.839920 1.078457 0.566918 -371.850962 1.460643 1.746124 2.134460 0.638822 0.767267 0.977699 0.638822 0.767266 0.977701 0.480336 0.574430 0.734067 20.834879 -1.599777 -0.872585 2.484965 -2.669296 -2.069457 -6.098790 -8.855193 -2.274128 17.362853 -41.708414 -7.896308 70.110423 13.823116 65.475559 -52.800590 42.857835 79.711128 -5.012135 9.331856 -2.412155 14.811243 40.125329 16.110328 61.664567 -11.815182 -63.497550 -15.889103 -26.388583 -75.063082 -1.384665 0.655122 -10.532153 24.599070 -3.536722 7.777688 -5.969229 -3.622652 14.548108 -14.598599 12.640395 1.618804 -11.499789 -3.280803 14.415866 5.539042 2.148573 7.342563 1.866115 10.222167 9.733453 -0.296813 2.338080 -0.000719 
-73.936256 24.497082 82.866020 1.024514 0.563451 -375.225130 1.546264 1.668978 2.095634 0.679277 0.728282 0.958119 0.679278 0.728282 0.958118 0.510595 0.545148 0.719392 20.798032 -1.559906 -0.812851 2.417987 -2.613508 -1.949082 -6.105962 -8.850194 -2.298354 17.205014 -41.649671 -7.983849 70.031678 13.868194 65.542721 -52.714160 42.847419 79.669321 -4.882378 9.323671 -2.459528 14.846366 40.128219 15.919380 61.587454 -11.777290 -63.531100 -15.773277 -26.492569 -74.907825 -1.500770 0.819786 -10.065861 24.207060 -3.541292 6.462594 -6.012959 -4.429424 15.519064 -13.596018 12.804229 1.436165 -10.917496 -3.323986 13.650152 5.148214 1.852122 6.638260 1.183557 9.235427 10.178880 -0.026659 2.949873 0.049246 
